<svg viewBox="0 0 400 400" xmlns="http://www.w3.org/2000/svg">
  <!-- Background circles -->
  <circle cx="200" cy="200" r="160" fill="#E6FFF0" opacity="0.3"/>
  <circle cx="200" cy="200" r="120" fill="#D1FFE3" opacity="0.4"/>
  
  <!-- Calendar base -->
  <rect x="120" y="100" width="160" height="180" rx="10" fill="#4ADE80"/>
  <rect x="130" y="110" width="140" height="160" rx="8" fill="white"/>
  
  <!-- Calendar header -->
  <rect x="130" y="110" width="140" height="30" rx="8" fill="#4ADE80"/>
  
  <!-- Calendar grid -->
  <g fill="#E5E7EB">
    <rect x="140" y="150" width="20" height="20" rx="2"/>
    <rect x="170" y="150" width="20" height="20" rx="2"/>
    <rect x="200" y="150" width="20" height="20" rx="2"/>
    <rect x="230" y="150" width="20" height="20" rx="2"/>
    
    <rect x="140" y="180" width="20" height="20" rx="2"/>
    <rect x="170" y="180" width="20" height="20" rx="2"/>
    <rect x="200" y="180" width="20" height="20" rx="2"/>
    <rect x="230" y="180" width="20" height="20" rx="2"/>
    
    <rect x="140" y="210" width="20" height="20" rx="2"/>
    <rect x="170" y="210" width="20" height="20" rx="2"/>
    <rect x="200" y="210" width="20" height="20" rx="2"/>
    <rect x="230" y="210" width="20" height="20" rx="2"/>
  </g>
  
  <!-- Selected dates -->
  <rect x="170" y="180" width="20" height="20" rx="2" fill="#4ADE80" opacity="0.5"/>
  <rect x="200" y="210" width="20" height="20" rx="2" fill="#4ADE80" opacity="0.5"/>
  
  <!-- Clock element -->
  <circle cx="280" cy="280" r="40" fill="#4ADE80" opacity="0.2"/>
  <circle cx="280" cy="280" r="35" fill="white" stroke="#4ADE80" stroke-width="4"/>
  <line x1="280" y1="280" x2="280" y2="260" stroke="#4ADE80" stroke-width="4" stroke-linecap="round"/>
  <line x1="280" y1="280" x2="295" y2="280" stroke="#4ADE80" stroke-width="4" stroke-linecap="round"/>
  
  <!-- Decorative elements -->
  <circle cx="100" cy="320" r="25" fill="#4ADE80" opacity="0.15"/>
  <circle cx="320" cy="120" r="30" fill="#4ADE80" opacity="0.15"/>
</svg>