<svg version="1.1" id="Layer_1" xmlns="http://www.w3.org/2000/svg" xmlns:xlink="http://www.w3.org/1999/xlink" x="0px" y="0px"
	 width="100%" viewBox="0 0 100 200" enable-background="new 0 0 2820 822" xml:space="preserve">
<path fill="#FFFFFF" opacity="1.000000" stroke="none" 
	d="
M1974.000000,823.000000 
	C1316.000000,823.000000 658.500000,823.000000 1.000000,823.000000 
	C1.000000,549.000000 1.000000,275.000000 1.000000,1.000000 
	C941.000000,1.000000 1881.000000,1.000000 2821.000000,1.000000 
	C2821.000000,275.000000 2821.000000,549.000000 2821.000000,823.000000 
	C2538.833252,823.000000 2256.666748,823.000000 1974.000000,823.000000 
M324.786682,172.111053 
	C293.422150,176.066742 263.692749,184.989349 235.981155,200.514374 
	C187.248093,227.816345 151.903137,267.177124 130.517166,318.619232 
	C113.184601,360.311218 108.770477,403.767639 115.965736,448.405609 
	C121.852760,484.927521 135.991684,517.974792 157.318832,548.056702 
	C178.108368,577.380249 204.515305,600.450562 235.882523,617.808228 
	C261.469727,631.967468 288.691620,641.802979 317.851166,644.877014 
	C332.364807,646.406982 347.112549,645.634460 361.747345,646.117676 
	C379.570038,646.706055 396.890686,643.845947 413.949768,638.999695 
	C470.824615,622.842224 516.472229,590.713684 549.170410,541.442078 
	C581.900391,492.122498 594.461731,437.653046 587.167053,378.713409 
	C582.903809,344.266571 571.431030,312.389435 553.141479,283.038544 
	C526.812317,240.785706 490.376526,210.005234 444.876648,190.071701 
	C421.394104,179.783981 396.772980,173.249084 371.093750,172.006485 
	C356.000244,171.276093 340.837067,171.985718 324.786682,172.111053 
M1855.238525,419.988220 
	C1867.357422,422.884003 1874.435303,430.808350 1877.156860,442.645813 
	C1878.530396,448.620331 1879.867676,454.763977 1879.948853,460.848175 
	C1880.400513,494.665192 1880.462402,528.487427 1880.655518,562.307861 
	C1880.665894,564.119019 1880.656860,565.930298 1880.656860,567.917847 
	C1891.933472,567.917847 1902.832764,567.917847 1914.079956,567.917847 
	C1914.079956,566.043091 1914.079956,564.406799 1914.080078,562.770569 
	C1914.080200,532.777954 1914.043335,502.785187 1914.117676,472.792725 
	C1914.129639,467.975525 1914.345459,463.121521 1914.966553,458.349579 
	C1917.708374,437.286865 1929.065918,419.334869 1957.280518,418.583679 
	C1978.610229,418.015778 1991.066040,427.090363 1995.165283,448.003632 
	C1996.594360,455.294800 1996.996948,462.877899 1997.045776,470.333069 
	C1997.246948,500.990906 1997.131470,531.650818 1997.132324,562.309937 
	C1997.132446,564.101013 1997.132202,565.892029 1997.132202,567.766724 
	C2008.593628,567.766724 2019.606934,567.766724 2030.825562,567.766724 
	C2030.825562,560.545288 2030.873779,553.729065 2030.817139,546.913757 
	C2030.551270,514.930847 2030.761108,482.932434 2029.766846,450.971710 
	C2029.242188,434.104675 2024.488403,418.038513 2012.443359,405.260864 
	C1991.068481,382.585724 1947.329224,380.787933 1922.884766,401.791260 
	C1917.052490,406.802307 1912.351318,413.129578 1907.087280,418.898285 
	C1895.731567,397.070923 1876.799805,386.761627 1852.297729,387.341797 
	C1828.368530,387.908356 1808.889648,397.801178 1795.084839,419.471069 
	C1795.084839,409.591095 1795.084839,400.874573 1795.084839,392.031372 
	C1784.577637,392.031372 1774.497925,392.031372 1764.255737,392.031372 
	C1764.255737,450.789276 1764.255737,509.341888 1764.255737,567.847534 
	C1775.420654,567.847534 1786.312134,567.847534 1797.544678,567.847534 
	C1797.544678,565.715454 1797.544678,563.906128 1797.544678,562.096741 
	C1797.544800,533.770386 1797.368896,505.442169 1797.662598,477.118835 
	C1797.741211,469.530060 1798.335083,461.712860 1800.269775,454.418854 
	C1807.387695,427.582794 1829.643188,413.650146 1855.238525,419.988220 
M1471.596313,553.901306 
	C1489.538086,568.631042 1510.656738,573.808716 1533.166504,572.551453 
	C1555.958496,571.278442 1575.401245,562.109070 1590.060059,542.202454 
	C1590.060059,551.639954 1590.060059,559.716370 1590.060059,567.918640 
	C1601.329956,567.918640 1612.228027,567.918640 1623.218262,567.918640 
	C1623.218262,474.141510 1623.218262,380.621582 1623.218262,287.165039 
	C1611.971191,287.165039 1601.078735,287.165039 1589.790527,287.165039 
	C1589.790527,330.525299 1589.790527,373.546295 1589.790527,414.517883 
	C1586.236694,411.552643 1581.826538,407.799713 1577.339844,404.141022 
	C1546.402588,378.913666 1496.591431,383.189911 1467.724976,409.090576 
	C1450.326904,424.701202 1440.863770,444.359344 1438.744629,467.536804 
	C1435.653442,501.349457 1444.204468,530.856384 1471.596313,553.901306 
M2443.909180,429.642609 
	C2435.429199,413.483215 2423.283447,401.270111 2406.284668,394.038025 
	C2395.356201,389.388336 2383.904785,387.466248 2372.209717,387.390015 
	C2341.282959,387.188477 2315.255615,397.929047 2296.222656,423.072296 
	C2280.494629,443.849701 2275.865967,467.577728 2279.099365,492.978333 
	C2283.389893,526.682312 2299.711670,552.849243 2331.731201,565.563232 
	C2363.381104,578.130310 2395.068604,575.311707 2424.624756,557.293030 
	C2433.437012,551.920654 2440.815674,544.827881 2447.254150,536.492065 
	C2438.625488,529.944702 2430.437988,523.732056 2421.947998,517.289978 
	C2420.310791,519.183838 2418.929199,520.798401 2417.530273,522.397827 
	C2389.190918,554.799500 2346.267578,546.364868 2325.118164,522.487366 
	C2317.579834,513.976868 2313.851318,503.989227 2314.076904,492.005920 
	C2361.387207,492.005920 2408.261963,492.005920 2455.421143,492.005920 
	C2455.589111,470.376251 2453.970947,449.625366 2443.909180,429.642609 
M2222.070557,409.428650 
	C2218.208252,406.283264 2214.587646,402.766876 2210.439209,400.060364 
	C2196.647705,391.063110 2181.181396,387.424713 2164.924316,387.364410 
	C2134.001953,387.249664 2107.817871,397.872589 2089.043457,423.225616 
	C2068.676758,450.728668 2066.490967,481.385406 2076.487793,513.010315 
	C2085.274170,540.805359 2104.134521,559.603455 2132.147217,568.446594 
	C2148.651611,573.656860 2165.624023,573.811401 2182.565430,570.882568 
	C2205.985596,566.833862 2225.135986,555.438904 2240.107422,536.502014 
	C2231.629883,530.065369 2223.329590,523.763245 2214.872803,517.342285 
	C2213.161133,519.255737 2211.717529,520.837036 2210.309082,522.449219 
	C2182.005859,554.848328 2138.894531,546.292664 2117.920410,522.397583 
	C2110.435059,513.869690 2106.607178,503.960114 2107.038330,492.093140 
	C2154.297852,492.093140 2201.050781,492.093140 2248.673584,492.093140 
	C2248.087646,482.443359 2247.999023,473.138885 2246.868164,463.962891 
	C2244.348877,443.523743 2237.338379,424.941681 2222.070557,409.428650 
M1134.705566,561.846436 
	C1156.091187,573.295227 1178.692505,575.470276 1201.990601,569.825867 
	C1257.268311,556.434082 1286.920776,500.397308 1267.204834,447.073883 
	C1252.361938,406.929382 1208.553345,381.344971 1166.285645,388.222198 
	C1130.375122,394.065094 1104.531738,413.580658 1091.405396,447.410065 
	C1074.668213,490.545135 1092.947388,537.526917 1134.705566,561.846436 
M864.467346,472.870544 
	C863.531982,491.583496 866.675049,509.553467 876.572632,525.578125 
	C897.763489,559.886963 928.436462,576.375427 969.019470,571.788330 
	C1001.331299,568.136108 1026.267334,551.759216 1041.520386,523.233704 
	C1074.507202,461.543091 1027.747925,386.235779 957.658264,387.200500 
	C905.543945,387.917755 867.280212,428.098541 864.467346,472.870544 
M727.758545,400.240356 
	C712.303284,409.705872 700.409729,422.391968 693.070251,439.068634 
	C684.858032,457.728455 682.967834,477.278198 686.146423,497.232605 
	C691.099487,528.326416 707.278992,551.706299 736.278625,564.633362 
	C761.913940,576.060669 788.438049,575.417603 814.649658,566.078308 
	C826.166992,561.974670 836.012634,554.989990 843.514771,545.937439 
	C835.594604,537.883606 827.919312,530.078857 820.155884,522.184509 
	C819.741577,522.576233 819.216492,522.987061 818.793457,523.484680 
	C797.155640,548.940796 751.563049,547.816528 730.706055,517.183838 
	C719.574768,500.835236 718.587952,482.600677 722.227112,463.935516 
	C728.612061,431.187836 757.962585,412.818420 790.334167,420.918793 
	C801.809204,423.790192 811.291077,429.987366 819.549072,438.710999 
	C828.025940,430.941284 836.351990,423.309845 844.668518,415.687103 
	C820.217590,385.602783 766.593384,378.408356 727.758545,400.240356 
M2508.815674,449.499939 
	C2508.815674,467.996216 2508.682129,486.493866 2508.869141,504.988251 
	C2508.971924,515.135010 2509.175537,525.317627 2510.123535,535.409912 
	C2511.375732,548.737610 2517.103271,560.024963 2529.496094,566.121094 
	C2548.986084,575.708496 2569.143799,574.122559 2589.240234,567.753235 
	C2590.001465,567.511963 2591.020508,566.423340 2591.029297,565.718506 
	C2591.148193,556.192993 2591.109131,546.665527 2591.109131,536.623169 
	C2580.996582,541.265381 2571.177246,542.271667 2561.096680,541.030579 
	C2553.045410,540.039246 2547.603760,535.674683 2545.230957,527.855530 
	C2544.268555,524.685181 2543.137939,521.391479 2543.099854,518.142090 
	C2542.724121,486.005127 2542.561768,453.865631 2542.352295,421.726746 
	C2542.351318,421.595764 2542.543701,421.463562 2543.042969,420.820190 
	C2558.373047,420.820190 2574.110596,420.820190 2589.949219,420.820190 
	C2589.949219,410.913452 2589.949219,401.520996 2589.949219,391.618347 
	C2573.931885,391.618347 2558.203857,391.618347 2541.977539,391.618347 
	C2541.977539,374.882538 2541.977539,358.654785 2541.977539,342.430786 
	C2530.707764,342.430786 2519.953369,342.430786 2508.815674,342.430786 
	C2508.815674,350.829193 2508.815674,358.963684 2508.815674,367.098175 
	C2508.815674,375.204620 2508.815674,383.311066 2508.815674,391.795624 
	C2495.634277,391.795624 2483.045654,391.795624 2470.230469,391.795624 
	C2470.230469,401.589813 2470.230469,410.992157 2470.230469,420.984436 
	C2483.152832,420.984436 2495.859375,420.984436 2508.815674,420.984436 
	C2508.815674,430.547760 2508.815674,439.523804 2508.815674,449.499939 
M1348.974365,506.500000 
	C1349.319458,492.356384 1348.718506,478.111450 1350.220215,464.091736 
	C1352.788818,440.114746 1366.067505,426.958893 1389.934326,423.923950 
	C1398.350464,422.853760 1407.016968,423.752899 1416.474365,423.752899 
	C1416.474365,413.232422 1416.474365,401.468903 1416.474365,389.139465 
	C1403.809814,385.618958 1390.870483,386.670319 1378.328491,392.377625 
	C1365.986938,397.993683 1355.774048,406.083405 1348.925537,418.356323 
	C1348.925537,409.637299 1348.925537,400.918304 1348.925537,392.086609 
	C1337.600098,392.086609 1326.695923,392.086609 1315.730713,392.086609 
	C1315.730713,450.874023 1315.730713,509.397461 1315.730713,567.811401 
	C1327.014648,567.811401 1337.907715,567.811401 1348.974609,567.811401 
	C1348.974609,547.464539 1348.974609,527.482300 1348.974365,506.500000 
M1710.800903,496.500061 
	C1710.800903,461.728210 1710.800903,426.956390 1710.800903,392.100037 
	C1699.314697,392.100037 1688.404419,392.100037 1677.463867,392.100037 
	C1677.463867,450.912201 1677.463867,509.445862 1677.463867,567.798706 
	C1688.732178,567.798706 1699.635864,567.798706 1710.800049,567.798706 
	C1710.800049,544.113831 1710.800049,520.806946 1710.800903,496.500061 
M1718.470215,327.668579 
	C1718.356201,326.676605 1718.262329,325.681824 1718.125000,324.693115 
	C1716.669312,314.209595 1708.306396,305.649384 1697.959717,304.042908 
	C1687.098511,302.356506 1675.759277,308.477325 1671.358765,318.401825 
	C1667.022583,328.181427 1669.602783,340.403717 1677.824707,346.994720 
	C1685.192017,352.900452 1693.512695,354.947144 1702.549072,351.086334 
	C1712.442383,346.859467 1718.109619,339.497437 1718.470215,327.668579 
z"/>
<path fill="#8DB179" opacity="1.000000" stroke="none" 
	d="
M325.245972,172.079346 
	C340.837067,171.985718 356.000244,171.276093 371.093750,172.006485 
	C396.772980,173.249084 421.394104,179.783981 444.876648,190.071701 
	C490.376526,210.005234 526.812317,240.785706 553.141479,283.038544 
	C571.431030,312.389435 582.903809,344.266571 587.167053,378.713409 
	C594.461731,437.653046 581.900391,492.122498 549.170410,541.442078 
	C516.472229,590.713684 470.824615,622.842224 413.949768,638.999695 
	C396.890686,643.845947 379.570038,646.706055 361.747345,646.117676 
	C347.112549,645.634460 332.364807,646.406982 317.851166,644.877014 
	C288.691620,641.802979 261.469727,631.967468 235.882523,617.808228 
	C204.515305,600.450562 178.108368,577.380249 157.318832,548.056702 
	C135.991684,517.974792 121.852760,484.927521 115.965736,448.405609 
	C108.770477,403.767639 113.184601,360.311218 130.517166,318.619232 
	C151.903137,267.177124 187.248093,227.816345 235.981155,200.514374 
	C263.692749,184.989349 293.422150,176.066742 325.245972,172.079346 
M479.178925,521.685974 
	C480.542877,520.225708 482.004547,518.844299 483.256134,517.293396 
	C502.589966,493.335541 515.032227,466.251129 519.728943,435.775787 
	C522.846985,415.543976 522.688599,395.196411 518.441467,375.217468 
	C509.156891,331.541687 486.466431,296.052856 450.001007,270.226257 
	C408.060333,240.521790 361.377930,231.433258 311.400238,243.234695 
	C262.041840,254.889893 224.930252,283.899963 200.741150,328.240112 
	C178.929779,368.221741 174.390732,410.900879 186.482193,454.938171 
	C197.705612,495.813995 221.554504,528.056946 256.572205,551.466125 
	C292.910126,575.757812 333.296692,584.392883 376.586975,577.914001 
	C417.331085,571.816223 451.424042,553.169250 479.178925,521.685974 
z"/>
<path fill="#131313" opacity="1.000000" stroke="none" 
	d="
M1854.822021,419.911072 
	C1829.643188,413.650146 1807.387695,427.582794 1800.269775,454.418854 
	C1798.335083,461.712860 1797.741211,469.530060 1797.662598,477.118835 
	C1797.368896,505.442169 1797.544800,533.770386 1797.544678,562.096741 
	C1797.544678,563.906128 1797.544678,565.715454 1797.544678,567.847534 
	C1786.312134,567.847534 1775.420654,567.847534 1764.255737,567.847534 
	C1764.255737,509.341888 1764.255737,450.789276 1764.255737,392.031372 
	C1774.497925,392.031372 1784.577637,392.031372 1795.084839,392.031372 
	C1795.084839,400.874573 1795.084839,409.591095 1795.084839,419.471069 
	C1808.889648,397.801178 1828.368530,387.908356 1852.297729,387.341797 
	C1876.799805,386.761627 1895.731567,397.070923 1907.087280,418.898285 
	C1912.351318,413.129578 1917.052490,406.802307 1922.884766,401.791260 
	C1947.329224,380.787933 1991.068481,382.585724 2012.443359,405.260864 
	C2024.488403,418.038513 2029.242188,434.104675 2029.766846,450.971710 
	C2030.761108,482.932434 2030.551270,514.930847 2030.817139,546.913757 
	C2030.873779,553.729065 2030.825562,560.545288 2030.825562,567.766724 
	C2019.606934,567.766724 2008.593628,567.766724 1997.132202,567.766724 
	C1997.132202,565.892029 1997.132446,564.101013 1997.132324,562.309937 
	C1997.131470,531.650818 1997.246948,500.990906 1997.045776,470.333069 
	C1996.996948,462.877899 1996.594360,455.294800 1995.165283,448.003632 
	C1991.066040,427.090363 1978.610229,418.015778 1957.280518,418.583679 
	C1929.065918,419.334869 1917.708374,437.286865 1914.966553,458.349579 
	C1914.345459,463.121521 1914.129639,467.975525 1914.117676,472.792725 
	C1914.043335,502.785187 1914.080200,532.777954 1914.080078,562.770569 
	C1914.079956,564.406799 1914.079956,566.043091 1914.079956,567.917847 
	C1902.832764,567.917847 1891.933472,567.917847 1880.656860,567.917847 
	C1880.656860,565.930298 1880.665894,564.119019 1880.655518,562.307861 
	C1880.462402,528.487427 1880.400513,494.665192 1879.948853,460.848175 
	C1879.867676,454.763977 1878.530396,448.620331 1877.156860,442.645813 
	C1874.435303,430.808350 1867.357422,422.884003 1854.822021,419.911072 
z"/>
<path fill="#141414" opacity="1.000000" stroke="none" 
	d="
M1471.323730,553.673706 
	C1444.204468,530.856384 1435.653442,501.349457 1438.744629,467.536804 
	C1440.863770,444.359344 1450.326904,424.701202 1467.724976,409.090576 
	C1496.591431,383.189911 1546.402588,378.913666 1577.339844,404.141022 
	C1581.826538,407.799713 1586.236694,411.552643 1589.790527,414.517883 
	C1589.790527,373.546295 1589.790527,330.525299 1589.790527,287.165039 
	C1601.078735,287.165039 1611.971191,287.165039 1623.218262,287.165039 
	C1623.218262,380.621582 1623.218262,474.141510 1623.218262,567.918640 
	C1612.228027,567.918640 1601.329956,567.918640 1590.060059,567.918640 
	C1590.060059,559.716370 1590.060059,551.639954 1590.060059,542.202454 
	C1575.401245,562.109070 1555.958496,571.278442 1533.166504,572.551453 
	C1510.656738,573.808716 1489.538086,568.631042 1471.323730,553.673706 
M1551.017090,538.787109 
	C1557.873901,534.848022 1565.630249,531.919983 1571.413208,526.774048 
	C1586.763550,513.114197 1590.804443,494.779663 1589.819214,475.032837 
	C1588.319702,444.979095 1570.767334,424.556702 1542.186035,419.357605 
	C1515.939087,414.583191 1491.550781,426.031036 1480.400635,449.328125 
	C1471.486450,467.953278 1471.138672,487.491730 1478.715698,506.587708 
	C1489.858276,534.669800 1518.910278,547.497559 1551.017090,538.787109 
z"/>
<path fill="#131313" opacity="1.000000" stroke="none" 
	d="
M2444.042969,429.990784 
	C2453.970947,449.625366 2455.589111,470.376251 2455.421143,492.005920 
	C2408.261963,492.005920 2361.387207,492.005920 2314.076904,492.005920 
	C2313.851318,503.989227 2317.579834,513.976868 2325.118164,522.487366 
	C2346.267578,546.364868 2389.190918,554.799500 2417.530273,522.397827 
	C2418.929199,520.798401 2420.310791,519.183838 2421.947998,517.289978 
	C2430.437988,523.732056 2438.625488,529.944702 2447.254150,536.492065 
	C2440.815674,544.827881 2433.437012,551.920654 2424.624756,557.293030 
	C2395.068604,575.311707 2363.381104,578.130310 2331.731201,565.563232 
	C2299.711670,552.849243 2283.389893,526.682312 2279.099365,492.978333 
	C2275.865967,467.577728 2280.494629,443.849701 2296.222656,423.072296 
	C2315.255615,397.929047 2341.282959,387.188477 2372.209717,387.390015 
	C2383.904785,387.466248 2395.356201,389.388336 2406.284668,394.038025 
	C2423.283447,401.270111 2435.429199,413.483215 2444.042969,429.990784 
M2386.982178,416.378815 
	C2349.900391,407.008667 2311.040039,433.111877 2314.392822,465.088348 
	C2349.407471,465.088348 2384.415283,465.088348 2419.433350,465.088348 
	C2418.595215,439.464172 2408.117920,423.621735 2386.982178,416.378815 
z"/>
<path fill="#131313" opacity="1.000000" stroke="none" 
	d="
M2222.321289,409.679993 
	C2237.338379,424.941681 2244.348877,443.523743 2246.868164,463.962891 
	C2247.999023,473.138885 2248.087646,482.443359 2248.673584,492.093140 
	C2201.050781,492.093140 2154.297852,492.093140 2107.038330,492.093140 
	C2106.607178,503.960114 2110.435059,513.869690 2117.920410,522.397583 
	C2138.894531,546.292664 2182.005859,554.848328 2210.309082,522.449219 
	C2211.717529,520.837036 2213.161133,519.255737 2214.872803,517.342285 
	C2223.329590,523.763245 2231.629883,530.065369 2240.107422,536.502014 
	C2225.135986,555.438904 2205.985596,566.833862 2182.565430,570.882568 
	C2165.624023,573.811401 2148.651611,573.656860 2132.147217,568.446594 
	C2104.134521,559.603455 2085.274170,540.805359 2076.487793,513.010315 
	C2066.490967,481.385406 2068.676758,450.728668 2089.043457,423.225616 
	C2107.817871,397.872589 2134.001953,387.249664 2164.924316,387.364410 
	C2181.181396,387.424713 2196.647705,391.063110 2210.439209,400.060364 
	C2214.587646,402.766876 2218.208252,406.283264 2222.321289,409.679993 
M2164.377930,414.069122 
	C2133.458984,413.389343 2103.612549,440.179626 2107.458740,465.253845 
	C2142.314209,465.253845 2177.181885,465.253845 2212.043213,465.253845 
	C2212.642090,435.578796 2194.537598,415.174255 2164.377930,414.069122 
z"/>
<path fill="#131313" opacity="1.000000" stroke="none" 
	d="
M1134.398804,561.640686 
	C1092.947388,537.526917 1074.668213,490.545135 1091.405396,447.410065 
	C1104.531738,413.580658 1130.375122,394.065094 1166.285645,388.222198 
	C1208.553345,381.344971 1252.361938,406.929382 1267.204834,447.073883 
	C1286.920776,500.397308 1257.268311,556.434082 1201.990601,569.825867 
	C1178.692505,575.470276 1156.091187,573.295227 1134.398804,561.640686 
M1229.992554,512.376831 
	C1236.463257,499.862762 1238.102295,486.508759 1237.129028,472.631683 
	C1235.139404,444.261505 1217.721924,424.027924 1189.821777,419.525238 
	C1168.558472,416.093689 1149.296021,420.647675 1135.080566,438.389374 
	C1120.981323,455.985962 1118.850220,476.240662 1123.270020,497.481323 
	C1128.112183,520.752380 1146.522583,537.375732 1170.400513,540.879944 
	C1195.715454,544.595093 1217.902100,534.180420 1229.992554,512.376831 
z"/>
<path fill="#131313" opacity="1.000000" stroke="none" 
	d="
M864.497803,472.411316 
	C867.280212,428.098541 905.543945,387.917755 957.658264,387.200500 
	C1027.747925,386.235779 1074.507202,461.543091 1041.520386,523.233704 
	C1026.267334,551.759216 1001.331299,568.136108 969.019470,571.788330 
	C928.436462,576.375427 897.763489,559.886963 876.572632,525.578125 
	C866.675049,509.553467 863.531982,491.583496 864.497803,472.411316 
M901.353271,465.108185 
	C901.227234,474.217896 899.943909,483.491455 901.205994,492.404602 
	C904.216431,513.665161 915.344788,529.853149 935.965576,537.339417 
	C956.893494,544.937256 977.542969,543.474792 995.363403,528.932617 
	C1018.339111,510.183380 1023.347717,467.864929 1006.204346,443.048615 
	C991.347595,421.542114 969.968628,415.756561 945.647522,419.640869 
	C922.783691,423.292419 906.362488,440.814362 901.353271,465.108185 
z"/>
<path fill="#131313" opacity="1.000000" stroke="none" 
	d="
M728.094238,400.088196 
	C766.593384,378.408356 820.217590,385.602783 844.668518,415.687103 
	C836.351990,423.309845 828.025940,430.941284 819.549072,438.710999 
	C811.291077,429.987366 801.809204,423.790192 790.334167,420.918793 
	C757.962585,412.818420 728.612061,431.187836 722.227112,463.935516 
	C718.587952,482.600677 719.574768,500.835236 730.706055,517.183838 
	C751.563049,547.816528 797.155640,548.940796 818.793457,523.484680 
	C819.216492,522.987061 819.741577,522.576233 820.155884,522.184509 
	C827.919312,530.078857 835.594604,537.883606 843.514771,545.937439 
	C836.012634,554.989990 826.166992,561.974670 814.649658,566.078308 
	C788.438049,575.417603 761.913940,576.060669 736.278625,564.633362 
	C707.278992,551.706299 691.099487,528.326416 686.146423,497.232605 
	C682.967834,477.278198 684.858032,457.728455 693.070251,439.068634 
	C700.409729,422.391968 712.303284,409.705872 728.094238,400.088196 
z"/>
<path fill="#121212" opacity="1.000000" stroke="none" 
	d="
M2508.815674,448.999908 
	C2508.815674,439.523804 2508.815674,430.547760 2508.815674,420.984436 
	C2495.859375,420.984436 2483.152832,420.984436 2470.230469,420.984436 
	C2470.230469,410.992157 2470.230469,401.589813 2470.230469,391.795624 
	C2483.045654,391.795624 2495.634277,391.795624 2508.815674,391.795624 
	C2508.815674,383.311066 2508.815674,375.204620 2508.815674,367.098175 
	C2508.815674,358.963684 2508.815674,350.829193 2508.815674,342.430786 
	C2519.953369,342.430786 2530.707764,342.430786 2541.977539,342.430786 
	C2541.977539,358.654785 2541.977539,374.882538 2541.977539,391.618347 
	C2558.203857,391.618347 2573.931885,391.618347 2589.949219,391.618347 
	C2589.949219,401.520996 2589.949219,410.913452 2589.949219,420.820190 
	C2574.110596,420.820190 2558.373047,420.820190 2543.042969,420.820190 
	C2542.543701,421.463562 2542.351318,421.595764 2542.352295,421.726746 
	C2542.561768,453.865631 2542.724121,486.005127 2543.099854,518.142090 
	C2543.137939,521.391479 2544.268555,524.685181 2545.230957,527.855530 
	C2547.603760,535.674683 2553.045410,540.039246 2561.096680,541.030579 
	C2571.177246,542.271667 2580.996582,541.265381 2591.109131,536.623169 
	C2591.109131,546.665527 2591.148193,556.192993 2591.029297,565.718506 
	C2591.020508,566.423340 2590.001465,567.511963 2589.240234,567.753235 
	C2569.143799,574.122559 2548.986084,575.708496 2529.496094,566.121094 
	C2517.103271,560.024963 2511.375732,548.737610 2510.123535,535.409912 
	C2509.175537,525.317627 2508.971924,515.135010 2508.869141,504.988251 
	C2508.682129,486.493866 2508.815674,467.996216 2508.815674,448.999908 
z"/>
<path fill="#141414" opacity="1.000000" stroke="none" 
	d="
M1348.974487,507.000000 
	C1348.974609,527.482300 1348.974609,547.464539 1348.974609,567.811401 
	C1337.907715,567.811401 1327.014648,567.811401 1315.730713,567.811401 
	C1315.730713,509.397461 1315.730713,450.874023 1315.730713,392.086609 
	C1326.695923,392.086609 1337.600098,392.086609 1348.925537,392.086609 
	C1348.925537,400.918304 1348.925537,409.637299 1348.925537,418.356323 
	C1355.774048,406.083405 1365.986938,397.993683 1378.328491,392.377625 
	C1390.870483,386.670319 1403.809814,385.618958 1416.474365,389.139465 
	C1416.474365,401.468903 1416.474365,413.232422 1416.474365,423.752899 
	C1407.016968,423.752899 1398.350464,422.853760 1389.934326,423.923950 
	C1366.067505,426.958893 1352.788818,440.114746 1350.220215,464.091736 
	C1348.718506,478.111450 1349.319458,492.356384 1348.974487,507.000000 
z"/>
<path fill="#141414" opacity="1.000000" stroke="none" 
	d="
M1710.800537,497.000061 
	C1710.800049,520.806946 1710.800049,544.113831 1710.800049,567.798706 
	C1699.635864,567.798706 1688.732178,567.798706 1677.463867,567.798706 
	C1677.463867,509.445862 1677.463867,450.912201 1677.463867,392.100037 
	C1688.404419,392.100037 1699.314697,392.100037 1710.800903,392.100037 
	C1710.800903,426.956390 1710.800903,461.728210 1710.800537,497.000061 
z"/>
<path fill="#131313" opacity="1.000000" stroke="none" 
	d="
M1718.491943,328.080139 
	C1718.109619,339.497437 1712.442383,346.859467 1702.549072,351.086334 
	C1693.512695,354.947144 1685.192017,352.900452 1677.824707,346.994720 
	C1669.602783,340.403717 1667.022583,328.181427 1671.358765,318.401825 
	C1675.759277,308.477325 1687.098511,302.356506 1697.959717,304.042908 
	C1708.306396,305.649384 1716.669312,314.209595 1718.125000,324.693115 
	C1718.262329,325.681824 1718.356201,326.676605 1718.491943,328.080139 
z"/>
<path fill="#FFFFFF" opacity="1.000000" stroke="none" 
	d="
M478.940216,521.946655 
	C451.424042,553.169250 417.331085,571.816223 376.586975,577.914001 
	C333.296692,584.392883 292.910126,575.757812 256.572205,551.466125 
	C221.554504,528.056946 197.705612,495.813995 186.482193,454.938171 
	C174.390732,410.900879 178.929779,368.221741 200.741150,328.240112 
	C224.930252,283.899963 262.041840,254.889893 311.400238,243.234695 
	C361.377930,231.433258 408.060333,240.521790 450.001007,270.226257 
	C486.466431,296.052856 509.156891,331.541687 518.441467,375.217468 
	C522.688599,395.196411 522.846985,415.543976 519.728943,435.775787 
	C515.032227,466.251129 502.589966,493.335541 483.256134,517.293396 
	C482.004547,518.844299 480.542877,520.225708 478.940216,521.946655 
z"/>
<path fill="#FEFEFE" opacity="1.000000" stroke="none" 
	d="
M1550.622314,538.881348 
	C1518.910278,547.497559 1489.858276,534.669800 1478.715698,506.587708 
	C1471.138672,487.491730 1471.486450,467.953278 1480.400635,449.328125 
	C1491.550781,426.031036 1515.939087,414.583191 1542.186035,419.357605 
	C1570.767334,424.556702 1588.319702,444.979095 1589.819214,475.032837 
	C1590.804443,494.779663 1586.763550,513.114197 1571.413208,526.774048 
	C1565.630249,531.919983 1557.873901,534.848022 1550.622314,538.881348 
z"/>
<path fill="#FBFBFB" opacity="1.000000" stroke="none" 
	d="
M2387.346436,416.546814 
	C2408.117920,423.621735 2418.595215,439.464172 2419.433350,465.088348 
	C2384.415283,465.088348 2349.407471,465.088348 2314.392822,465.088348 
	C2311.040039,433.111877 2349.900391,407.008667 2387.346436,416.546814 
z"/>
<path fill="#FBFBFB" opacity="1.000000" stroke="none" 
	d="
M2164.850830,414.083069 
	C2194.537598,415.174255 2212.642090,435.578796 2212.043213,465.253845 
	C2177.181885,465.253845 2142.314209,465.253845 2107.458740,465.253845 
	C2103.612549,440.179626 2133.458984,413.389343 2164.850830,414.083069 
z"/>
<path fill="#FEFEFE" opacity="1.000000" stroke="none" 
	d="
M1229.837158,512.714722 
	C1217.902100,534.180420 1195.715454,544.595093 1170.400513,540.879944 
	C1146.522583,537.375732 1128.112183,520.752380 1123.270020,497.481323 
	C1118.850220,476.240662 1120.981323,455.985962 1135.080566,438.389374 
	C1149.296021,420.647675 1168.558472,416.093689 1189.821777,419.525238 
	C1217.721924,424.027924 1235.139404,444.261505 1237.129028,472.631683 
	C1238.102295,486.508759 1236.463257,499.862762 1229.837158,512.714722 
z"/>
<path fill="#FEFEFE" opacity="1.000000" stroke="none" 
	d="
M901.488525,464.703064 
	C906.362488,440.814362 922.783691,423.292419 945.647522,419.640869 
	C969.968628,415.756561 991.347595,421.542114 1006.204346,443.048615 
	C1023.347717,467.864929 1018.339111,510.183380 995.363403,528.932617 
	C977.542969,543.474792 956.893494,544.937256 935.965576,537.339417 
	C915.344788,529.853149 904.216431,513.665161 901.205994,492.404602 
	C899.943909,483.491455 901.227234,474.217896 901.488525,464.703064 
z"/>
</svg>